<svg width="55" height="55" viewBox="0 0 55 55" fill="none" xmlns="http://www.w3.org/2000/svg">
<path d="M7.49997 18C5.58095 24.2007 10.2426 27.7516 12 34C13.7573 40.2484 10.8367 42.2178 14 45.5C18.065 49.7178 23.1923 46.2655 29 45.5C35.8607 44.5957 41.4567 45.7198 46 40.5C49.2431 36.774 49.8336 33.437 50 28.5C50.1341 24.5197 52.491 22.4052 48 18.5C43.5089 14.5948 41.4354 11.8259 36.5 8.5C31.9372 5.42526 29 2.50001 24 2C19 1.5 16.5 2.5 16 8.5C15.5 14.5 8.97179 13.2443 7.49997 18Z" fill="#F5F5F5" fill-opacity="0.26"/>
<path d="M28.5387 18.8488C29.003 18.3855 29.7558 18.3855 30.2201 18.8488L35.1303 23.7475C35.5946 24.2108 35.5946 24.9618 35.1303 25.425L27.4454 33.0922C26.981 33.5554 26.2283 33.5554 25.7639 33.0922L20.8538 28.1934C20.3894 27.7302 20.3894 26.9791 20.8538 26.5159L28.5387 18.8488Z" fill="#B5B5B5"/>
<path d="M18.2834 29.7205C18.6613 29.3435 19.2739 29.3435 19.6518 29.7205L24.2942 34.3521C24.672 34.7291 24.672 35.3403 24.2942 35.7173C23.9163 36.0942 23.3037 36.0942 22.9258 35.7173L18.2834 31.0857C17.9055 30.7087 17.9055 30.0974 18.2834 29.7205Z" fill="#B5B5B5"/>
<path d="M20.8983 28.2917L25.7274 33.1097L24.4219 34.4121L19.5928 29.5942L20.8983 28.2917Z" fill="#B5B5B5"/>
<path d="M36.454 22.3626L31.5902 17.564C34.3099 14.9467 35.9304 13.7045 39.9127 14.0595C40.3649 18.4607 39.0385 19.9129 36.454 22.3626Z" fill="#B5B5B5"/>
<path d="M28.5387 18.8488C29.003 18.3855 29.7558 18.3855 30.2201 18.8488L35.1303 23.7475C35.5946 24.2108 35.5946 24.9618 35.1303 25.425L27.4454 33.0922C26.981 33.5554 26.2283 33.5554 25.7639 33.0922L20.8538 28.1934C20.3894 27.7302 20.3894 26.9791 20.8538 26.5159L28.5387 18.8488Z" stroke="#B5B5B5"/>
<path d="M18.2834 29.7205C18.6613 29.3435 19.2739 29.3435 19.6518 29.7205L24.2942 34.3521C24.672 34.7291 24.672 35.3403 24.2942 35.7173C23.9163 36.0942 23.3037 36.0942 22.9258 35.7173L18.2834 31.0857C17.9055 30.7087 17.9055 30.0974 18.2834 29.7205Z" stroke="#B5B5B5"/>
<path d="M20.8983 28.2917L25.7274 33.1097L24.4219 34.4121L19.5928 29.5942L20.8983 28.2917Z" stroke="#B5B5B5"/>
<path d="M36.454 22.3626L31.5902 17.564C34.3099 14.9467 35.9304 13.7045 39.9127 14.0595C40.3649 18.4607 39.0385 19.9129 36.454 22.3626Z" stroke="#B5B5B5"/>
</svg>
