<svg width="314" height="325" viewBox="0 0 314 325" fill="none" xmlns="http://www.w3.org/2000/svg">
<path d="M22 141.5C14.5 148 4.25229 200.305 3 250.5C5.94784 277.124 12.0153 287.581 28.5 300.5C56.6306 314.763 59 315.5 79.5 315.5C100 315.5 164.5 288 183.5 281.5C202.5 275 299 219.5 300.5 203C302 186.5 299 165.5 299 165.5C295.803 144.825 304.965 133.886 305.5 118.5C304.234 101.011 287.709 82.098 283 78.9998C278.291 75.9016 249.076 65.9363 237 66.9998C222.627 66.872 216.419 37.4635 201 37.4998C185.581 37.5361 104.5 67.4998 94 74.9998C83.5 82.4998 29.5 135 22 141.5Z" fill="#E7AE52"/>
<path d="M63 123.5C63 123.5 19.3903 156.373 15.5 188C11.6097 219.627 9.00003 247.5 20.5 267C32 286.5 56 313.5 82.5 301.5C109 289.5 159.098 268.838 208 247.5C237.329 234.702 263.776 240.081 283 214.5C301.846 189.422 290.009 166.047 294.5 135C298.948 104.25 298.011 103.326 285.855 91.3497L285.5 91C272.536 78.2239 256.415 90.2216 239.5 83.5C219.14 75.4093 215.644 55.738 194.5 50C160.931 40.8899 133.607 69.1617 111 81C88.3927 92.8383 63 123.5 63 123.5Z" fill="#FBBC6C"/>
<path d="M67.5 164.5C54.9313 183.525 35.6399 195.918 43 217.5C48.8374 234.617 63.1319 238.31 79.5 246C121.425 265.698 154.062 245.067 196.5 226.5C227.063 213.128 259.77 211.452 267.5 179C274.02 151.628 261.377 131.403 241 112C214.147 86.4317 183.487 86.5712 147.5 95.5C107.457 105.435 90.2412 130.076 67.5 164.5Z" fill="#A5A336"/>
</svg>
