<svg width="400" height="400" viewBox="0 0 400 400" fill="none" xmlns="http://www.w3.org/2000/svg">
<path d="M98.5001 117C74.9934 157.974 53.6008 184.632 59.5001 231.5C65.21 276.864 79.7515 313.02 122 330.5C173.769 351.919 203.022 297.61 254.5 275.5C296.271 257.559 339.14 268.36 361 228.5C380.387 193.15 369.158 162.859 354 125.5C341.725 95.2475 329.928 78.3394 304 58.5C261.237 25.7795 217.824 11.4033 168.5 33C129.384 50.127 119.749 79.9612 98.5001 117Z" fill="#E7AE52" stroke="#DDA954" stroke-width="10"/>
<path d="M252 50.5C211.904 38.4346 179.548 47.5519 147.5 74.5C125.098 93.3366 120.814 111.948 108.5 138.5C89.7875 178.848 64.571 206.43 79 248.5C84.3092 263.98 90.2002 271.742 100.449 284.5C113.02 300.15 119.243 314.947 139 318.5C160.172 322.308 173.179 310.513 189.5 296.5C211.931 277.24 225.64 266.142 264 261C297.32 256.534 328.448 260.038 344.5 230.5C356.248 208.883 349.195 191.651 344.5 167.5C338.991 139.159 331.984 122.906 314.5 99.9303C295.655 75.1666 281.799 59.4668 252 50.5Z" fill="#FBBC6C"/>
<path d="M160 149.5C143.215 180.739 114.068 199.93 125.5 233.5C132.102 252.888 139.563 271.658 160 273C190.273 274.987 222.201 240.358 268.5 239C290.895 238.343 317.763 221.04 318 190C318.192 164.781 324.513 156.204 306 138.5C287.487 120.796 265.801 104.126 233.5 99.5C201.583 94.9294 183.71 105.371 160 149.5Z" fill="#A5A336"/>
</svg>
