<svg width="263" height="124" viewBox="0 0 263 124" fill="none" xmlns="http://www.w3.org/2000/svg">
<path d="M218.5 33.5H186.5L89.5 90.9082L116 91L128.5 86H148V91.5H151V86H207.5L213.5 77.5H242.5V82H247.5V77.5H248L252.5 69.5L246.5 42.5L218.5 33.5Z" fill="#666666"/>
<path fill-rule="evenodd" clip-rule="evenodd" d="M186.363 33H218.578L246.926 42.1117L253.03 69.5783L248.292 78H248V82.5H242V78H213.759L207.759 86.5H151.5V92H147.5V86.5H128.596L116.095 91.5003L87.6841 91.4019L186.363 33ZM247.708 77L251.97 69.4217L246.074 42.8883L218.422 34H186.637L91.3159 90.4145L115.905 90.4997L128.404 85.5H148.5V91H150.5V85.5H207.241L213.241 77H243V81.5H247V77H247.708Z" fill="#575958"/>
<path d="M156.5 33.5L73.5 82L79 87L84 91H87.5L184.5 33.5H170.5H156.5Z" fill="#4E504F"/>
<path fill-rule="evenodd" clip-rule="evenodd" d="M156.365 33H186.324L87.6371 91.5H83.8246L78.6753 87.3806L72.6598 81.9119L156.365 33ZM156.635 34L74.3402 82.0881L79.0654 86.3837L115.749 65.0677L116.251 65.9323L79.8823 87.0656L84.1754 90.5H87.3629L182.676 34H170.636L134.254 55.4308L133.746 54.5692L168.666 34H156.635Z" fill="white"/>
<path d="M154.5 33.5L72.5 81.5L65 80V85.5H62.5V79.5L12 72.3265V46.5L35.5 45.5V41.5H38.5V45L63.5 43.5V39.5H66V43L72 42.5L106 33.5H133.5V28.5H136.5V33.5H154.5Z" fill="#666666"/>
<path fill-rule="evenodd" clip-rule="evenodd" d="M133 28H137V33H156.344L72.5884 82.0276L65.5 80.6099V86H62V79.934L11.5 72.7605V46.0208L35 45.0208V41H39V44.4691L63 43.0291V39H66.5V42.4566L71.9146 42.0054L105.935 33H133V28ZM134 29V34H106.065L72.0854 42.9946L65.5 43.5434V40H64V43.9709L38 45.5309V42H36V45.9792L12.5 46.9792V71.8925L63 79.066V85H64.5V79.3901L72.4116 80.9724L152.656 34H136V29H134Z" fill="#575958"/>
<path d="M183.5 72H157.5V83H183.5V72Z" fill="#D1D1D3"/>
<path d="M188 75H194V81H188V75Z" fill="#D0D0D2"/>
<path d="M215.5 45.5H189V34H215.5V45.5Z" fill="#6D6D6D"/>
<path d="M228 75.5H225.5V72H228V75.5Z" fill="#D3D3D5"/>
<path d="M79 55H91V60H79V55Z" fill="#D1D1D3"/>
<path d="M37 74V72H39V74H37Z" fill="#D9D9D9"/>
<path d="M59 77V75H61V77H59Z" fill="#D9D9D9"/>
<path d="M68 79V77H70V79H68Z" fill="#D9D9D9"/>
<path d="M49 76V74H51V76H49Z" fill="#D9D9D9"/>
</svg>
