<svg width="314" height="94" viewBox="0 0 314 94" fill="none" xmlns="http://www.w3.org/2000/svg">
<path d="M93.5 68.5L16.5 63.5V40.5L77 36.5L90.5 14.5H167.5L232.5 26.5H271.5L280.5 38.5H306.5V81.5H260.5V87.5H170.5L164.5 80.5H104.5L93.5 68.5Z" fill="#666666" stroke="#4D4D4D"/>
<path d="M85.5 22.5L295.5 81.5H306.5V72.5L90.5 14.5L85.5 22.5Z" fill="#595B5A" stroke="#4D4D4D"/>
<path d="M263.5 81.5L78 35L83.5 26L282.5 81.5H263.5Z" fill="#595B5A" stroke="#4D4D4D"/>
<rect x="109" y="67" width="11" height="13" fill="#605E5F"/>
<rect x="128" y="67" width="11" height="13" fill="#605E5F"/>
<rect x="152" y="67" width="8" height="13" fill="#605E5F"/>
<rect x="234" y="29" width="9" height="4" fill="#D9D9D9"/>
<rect x="246" y="29" width="9" height="4" fill="#D9D9D9"/>
<rect x="256" y="29" width="13" height="7" fill="#D9D9D9"/>
<rect x="280" y="39" width="26" height="10" fill="#5A5A5C"/>
<rect x="192" y="75" width="34" height="12" fill="#D9D9D9"/>
<rect x="194" y="79" width="6" height="4" fill="#C4C4C4"/>
<rect x="194" y="79" width="6" height="4" fill="#C4C4C4"/>
<rect x="206" y="79" width="6" height="4" fill="#C4C4C4"/>
<rect x="206" y="79" width="6" height="4" fill="#C4C4C4"/>
<rect x="218" y="79" width="6" height="4" fill="#C4C4C4"/>
<rect x="218" y="79" width="6" height="4" fill="#C4C4C4"/>
</svg>
