<svg width="308" height="96" viewBox="0 0 308 96" fill="none" xmlns="http://www.w3.org/2000/svg">
<path d="M16 89V88V27H11V89H16Z" fill="#4C4D4F" stroke="#4C4D4F"/>
<path d="M64.5 28.5H16.5V87.5H214L217.5 85.5L64.5 28.5Z" fill="#666666" stroke="#4C4D4F"/>
<path d="M80 15.5L65 28.5C115.667 47.5 217.1 85.5 217.5 85.5C217.9 85.5 229.333 77.5 235 73.5L80 15.5Z" fill="#595B5A" stroke="#4D4D4D"/>
<path d="M224.5 15.5H80L235 73.5L245.5 66.5L302.5 57.5V34.5L242.5 29.5L224.5 15.5Z" fill="#666666" stroke="#4D4D4D"/>
<path d="M299.159 51.7557C299.159 52.6042 299.013 53.3598 298.722 54.0227C298.426 54.6818 298.021 55.2027 297.506 55.5852C296.987 55.964 296.388 56.1591 295.71 56.1705L295.71 53.6932C295.994 53.678 296.244 53.5852 296.46 53.4148C296.672 53.2405 296.837 53.0095 296.955 52.7216C297.072 52.4337 297.131 52.1098 297.131 51.75C297.131 51.375 297.064 51.0436 296.932 50.7557C296.799 50.4678 296.616 50.2424 296.381 50.0795C296.146 49.9167 295.875 49.8352 295.568 49.8352C295.258 49.8352 294.983 49.9223 294.744 50.0966C294.502 50.267 294.312 50.5133 294.176 50.8352C294.04 51.1534 293.972 51.5322 293.972 51.9716L293.972 53.0568L292.165 53.0568L292.165 51.9716C292.165 51.6004 292.1 51.2727 291.972 50.9886C291.843 50.7008 291.665 50.4773 291.437 50.3182C291.206 50.1591 290.937 50.0795 290.631 50.0795C290.339 50.0795 290.083 50.1496 289.864 50.2898C289.64 50.4261 289.466 50.6193 289.341 50.8693C289.216 51.1155 289.153 51.4034 289.153 51.733C289.153 52.0663 289.214 52.3712 289.335 52.6477C289.453 52.9242 289.621 53.1458 289.841 53.3125C290.061 53.4792 290.318 53.5682 290.614 53.5795L290.614 55.9375C289.943 55.9261 289.352 55.7348 288.841 55.3636C288.33 54.9924 287.93 54.4924 287.642 53.8636C287.35 53.2311 287.205 52.517 287.205 51.7216C287.205 50.9186 287.35 50.2159 287.642 49.6136C287.934 49.0114 288.328 48.5436 288.824 48.2102C289.316 47.8731 289.869 47.7064 290.483 47.7102C291.134 47.7064 291.678 47.9091 292.114 48.3182C292.549 48.7235 292.826 49.2519 292.943 49.9034L293.034 49.9034C293.144 49.0473 293.441 48.3958 293.926 47.9489C294.407 47.4981 295.009 47.2746 295.733 47.2784C296.396 47.2746 296.985 47.4659 297.5 47.8523C298.015 48.2348 298.42 48.7633 298.716 49.4375C299.011 50.1117 299.159 50.8845 299.159 51.7557ZM299.159 41.2599C299.159 42.063 299.011 42.7789 298.716 43.4077C298.42 44.0327 298.013 44.5289 297.494 44.8963C296.975 45.2637 296.381 45.455 295.71 45.4702L295.71 43.0838C296.161 43.0573 296.527 42.8679 296.807 42.5156C297.087 42.1634 297.227 41.7448 297.227 41.2599C297.227 40.8736 297.142 40.5327 296.972 40.2372C296.797 39.938 296.557 39.705 296.25 39.5384C295.939 39.3679 295.583 39.2827 295.182 39.2827C294.773 39.2827 294.413 39.3698 294.102 39.544C293.792 39.7145 293.549 39.9512 293.375 40.2543C293.201 40.5573 293.112 40.9039 293.108 41.294C293.108 41.6349 293.178 41.9664 293.318 42.2884C293.458 42.6065 293.65 42.8546 293.892 43.0327L293.5 45.2202L287.364 44.669L287.364 37.5554L289.375 37.5554L289.375 42.6406L292.29 42.9418L292.29 42.8736C292.002 42.669 291.763 42.3603 291.574 41.9474C291.384 41.5346 291.29 41.0724 291.29 40.5611C291.29 39.8603 291.455 39.2353 291.784 38.6861C292.114 38.1368 292.566 37.7031 293.142 37.3849C293.714 37.0668 294.373 36.9096 295.119 36.9134C295.903 36.9096 296.6 37.0914 297.21 37.4588C297.816 37.8224 298.294 38.3319 298.642 38.9872C298.987 39.6387 299.159 40.3963 299.159 41.2599Z" fill="white"/>
<rect x="179" y="30" width="12" height="7" fill="#D9D9D9"/>
<rect x="177" y="18" width="5" height="3" fill="#D9D9D9"/>
<rect x="192" y="18" width="5" height="3" fill="#D9D9D9"/>
<rect x="207" y="18" width="5" height="3" fill="#D9D9D9"/>
<rect x="112" y="16" width="51" height="10" fill="#D4D4D4"/>
<rect x="125" y="18" width="38" height="8" fill="#BDBDBD"/>
<rect x="129" y="21" width="3" height="2" fill="#D9D9D9"/>
<rect x="138" y="21" width="3" height="2" fill="#D9D9D9"/>
<rect x="147" y="21" width="3" height="2" fill="#D9D9D9"/>
<rect x="156" y="21" width="3" height="2" fill="#D9D9D9"/>
</svg>
